<?xml version="1.0" standalone="no"?>
<!DOCTYPE svg PUBLIC "-//W3C//DTD SVG 20010904//EN"
 "http://www.w3.org/TR/2001/REC-SVG-20010904/DTD/svg10.dtd">
<svg version="1.0" xmlns="http://www.w3.org/2000/svg"
 width="300.000000pt" height="61.000000pt" viewBox="0 0 300.000000 61.000000"
 preserveAspectRatio="xMidYMid meet">
<metadata>
Created by potrace 1.10, written by Peter Selinger 2001-2011
</metadata>
<g transform="translate(0.000000,61.000000) scale(0.100000,-0.100000)"
fill="#3d85c6" stroke="none">
<path d="M1326 508 c-4 -24 -25 -100 -48 -171 -35 -107 -39 -131 -30 -152 12
-27 32 -31 63 -15 26 14 25 40 -1 33 -29 -8 -26 10 26 173 26 78 44 149 41
158 -4 9 -15 16 -25 16 -15 0 -21 -10 -26 -42z"/>
<path d="M1887 538 c-2 -7 -14 -53 -25 -101 -12 -49 -37 -127 -56 -175 -26
-63 -32 -88 -23 -94 21 -13 26 -9 51 40 31 61 104 152 122 152 18 0 18 2 -11
-64 -14 -31 -25 -69 -25 -84 0 -50 42 -69 73 -34 23 25 21 32 -5 29 -27 -2
-27 3 9 95 28 73 23 98 -21 98 -28 0 -37 -7 -81 -65 -21 -27 -35 -41 -30 -30
35 87 66 190 63 213 -3 28 -35 44 -41 20z"/>
<path d="M276 490 c-66 -58 -210 -320 -176 -320 14 0 40 38 100 149 67 125 97
171 110 171 5 0 0 -20 -11 -45 -23 -53 -49 -164 -49 -216 0 -19 6 -44 14 -54
14 -19 15 -19 35 -1 11 10 41 59 67 110 56 110 115 209 120 203 2 -2 -7 -35
-21 -72 -43 -114 -58 -191 -43 -223 16 -33 52 -40 79 -16 26 24 24 33 -8 31
-27 -2 -28 0 -25 42 1 24 18 91 37 149 19 58 32 109 29 114 -3 4 -15 8 -26 8
-35 0 -100 -79 -153 -188 -27 -56 -53 -102 -56 -102 -11 0 11 101 41 190 15
47 26 88 23 93 -10 17 -55 5 -87 -23z"/>
<path d="M580 505 c-20 -24 3 -44 31 -27 12 8 23 11 26 9 15 -15 -68 -256 -97
-282 -23 -21 -26 -45 -6 -45 25 0 62 38 85 89 27 56 38 55 68 -3 22 -44 64
-86 86 -86 23 0 57 18 57 30 0 6 -11 10 -24 10 -17 0 -35 16 -66 57 l-43 56
29 21 c16 11 48 39 72 62 38 38 43 47 40 81 -3 33 -7 38 -30 41 -26 3 -27 1
-22 -26 8 -41 -15 -80 -80 -136 -31 -26 -56 -45 -56 -41 0 4 6 30 14 58 25 91
27 115 10 132 -20 19 -78 19 -94 0z"/>
<path d="M1108 487 c-61 -47 -108 -140 -108 -215 1 -77 31 -112 97 -112 35 0
93 34 93 55 0 19 -3 19 -47 -5 -21 -11 -43 -20 -50 -20 -19 0 -43 42 -43 77 0
88 87 223 143 223 38 0 36 -35 -5 -78 -31 -32 -32 -34 -14 -47 22 -17 46 -5
70 36 58 97 -40 159 -136 86z"/>
<path d="M2127 513 c-12 -11 -7 -40 9 -53 13 -11 19 -10 36 7 25 26 18 53 -15
53 -13 0 -27 -3 -30 -7z"/>
<path d="M1705 430 c-9 -18 -23 -30 -35 -30 -23 0 -27 -15 -6 -23 12 -5 12
-12 -1 -49 -24 -71 -28 -132 -8 -151 22 -23 47 -21 79 4 38 30 35 53 -4 31
-49 -28 -56 -8 -30 82 18 60 27 76 42 76 23 0 58 17 58 29 0 4 -13 6 -30 3
-29 -4 -41 10 -20 23 17 11 11 35 -10 35 -12 0 -26 -12 -35 -30z"/>
<path d="M1453 380 c-65 -39 -96 -157 -53 -200 61 -61 181 31 184 141 2 73
-62 101 -131 59z m82 -20 c15 -47 -42 -162 -83 -168 -20 -3 -22 1 -22 38 0 44
20 91 53 128 25 27 44 28 52 2z"/>
<path d="M2088 394 c-4 -3 -2 -14 4 -24 9 -13 5 -32 -15 -84 -30 -73 -33 -96
-15 -114 18 -18 42 -15 62 7 17 19 7 39 -13 26 -21 -13 -18 14 9 79 41 97 42
110 5 114 -17 2 -34 0 -37 -4z"/>
<path d="M2225 391 c-3 -5 -1 -12 5 -16 13 -8 4 -45 -33 -128 -25 -57 -28 -70
-16 -78 23 -14 28 -11 53 39 30 59 105 152 123 152 17 0 17 -1 -12 -70 -29
-68 -31 -102 -9 -120 20 -17 67 -2 72 23 3 15 -1 17 -22 11 -14 -3 -26 -3 -26
1 0 4 14 38 31 76 32 74 34 96 8 112 -28 17 -66 -1 -100 -48 -36 -51 -49 -53
-24 -5 9 17 14 38 11 46 -6 16 -52 19 -61 5z"/>
<path d="M2533 380 c-65 -39 -99 -162 -57 -204 22 -23 48 -20 83 10 36 30 37
29 12 -28 -17 -41 -71 -98 -92 -98 -5 0 -9 -4 -9 -10 0 -24 57 -9 87 23 39 41
59 80 93 186 15 47 31 94 35 103 8 21 -23 38 -34 19 -6 -9 -11 -8 -21 4 -17
21 -58 19 -97 -5z m81 -13 c18 -13 18 -15 -3 -62 -27 -61 -68 -115 -87 -115
-36 0 -5 144 39 175 26 18 29 18 51 2z"/>
</g>
</svg>
